<mxfile host="app.diagrams.net" agent="Mozilla/5.0 (X11; Ubuntu; Linux x86_64; rv:134.0) Gecko/20100101 Firefox/134.0" version="26.0.6">
  <diagram name="Page-1" id="eGiBC5Mm-Id7Mb2l1J9q">
    <mxGraphModel grid="1" page="1" gridSize="10" guides="1" tooltips="1" connect="1" arrows="1" fold="1" pageScale="1" pageWidth="850" pageHeight="1100" math="0" shadow="0">
      <root>
        <mxCell id="0" />
        <mxCell id="1" parent="0" />
        <mxCell id="zwco47nMpaqvvsI_LRL5-1" value="LiFePO4&lt;br&gt;Battery Connector Module" style="whiteSpace=wrap;html=1;aspect=fixed;fillColor=#d5e8d4;strokeColor=#82b366;" vertex="1" parent="1">
          <mxGeometry x="420" y="2030" width="80" height="80" as="geometry" />
        </mxCell>
        <mxCell id="zwco47nMpaqvvsI_LRL5-4" value="USB-C&lt;br&gt;Charge Controller &lt;br&gt;with UART&lt;br&gt;Data Module" style="whiteSpace=wrap;html=1;aspect=fixed;fillColor=#d5e8d4;strokeColor=#82b366;" vertex="1" parent="1">
          <mxGeometry x="40" y="1680" width="80" height="80" as="geometry" />
        </mxCell>
        <mxCell id="zwco47nMpaqvvsI_LRL5-6" value="Car / Truck /&lt;br&gt;Solar Power&lt;br&gt;Input&lt;br&gt;Connector Module" style="whiteSpace=wrap;html=1;aspect=fixed;fillColor=#d5e8d4;strokeColor=#82b366;" vertex="1" parent="1">
          <mxGeometry x="290" y="2030" width="80" height="80" as="geometry" />
        </mxCell>
        <mxCell id="zwco47nMpaqvvsI_LRL5-9" value="Low-Power FPGA Module" style="swimlane;startSize=0;fillColor=light-dark(#8ff0a4, #ededed);" vertex="1" parent="1">
          <mxGeometry x="-320" y="1350" width="330" height="220" as="geometry">
            <mxRectangle x="30" y="650" width="50" height="40" as="alternateBounds" />
          </mxGeometry>
        </mxCell>
        <mxCell id="zwco47nMpaqvvsI_LRL5-8" value="Low-Power FPGA" style="whiteSpace=wrap;html=1;aspect=fixed;" vertex="1" parent="zwco47nMpaqvvsI_LRL5-9">
          <mxGeometry x="30" y="20" width="80" height="80" as="geometry" />
        </mxCell>
        <mxCell id="zwco47nMpaqvvsI_LRL5-10" value="UART&lt;br&gt;Comms&lt;br&gt;Buffer" style="whiteSpace=wrap;html=1;aspect=fixed;" vertex="1" parent="zwco47nMpaqvvsI_LRL5-9">
          <mxGeometry x="130" y="120" width="80" height="80" as="geometry" />
        </mxCell>
        <mxCell id="zwco47nMpaqvvsI_LRL5-11" value="Power LED&lt;br&gt;Control" style="whiteSpace=wrap;html=1;aspect=fixed;" vertex="1" parent="zwco47nMpaqvvsI_LRL5-9">
          <mxGeometry x="30" y="120" width="80" height="80" as="geometry" />
        </mxCell>
        <mxCell id="zwco47nMpaqvvsI_LRL5-12" value="Switch &amp;amp; User Input" style="whiteSpace=wrap;html=1;aspect=fixed;" vertex="1" parent="zwco47nMpaqvvsI_LRL5-9">
          <mxGeometry x="230" y="20" width="80" height="80" as="geometry" />
        </mxCell>
        <mxCell id="zwco47nMpaqvvsI_LRL5-13" value="&lt;div&gt;Main FPGA&lt;/div&gt;&lt;div&gt;Wake Logic&lt;br&gt;&lt;/div&gt;" style="whiteSpace=wrap;html=1;aspect=fixed;" vertex="1" parent="zwco47nMpaqvvsI_LRL5-9">
          <mxGeometry x="130" y="20" width="80" height="80" as="geometry" />
        </mxCell>
        <mxCell id="zwco47nMpaqvvsI_LRL5-14" value="High-Power&lt;br&gt;DC:DC Regulator&lt;br&gt;Module" style="whiteSpace=wrap;html=1;aspect=fixed;fillColor=#d5e8d4;strokeColor=#82b366;" vertex="1" parent="1">
          <mxGeometry x="40" y="1040" width="80" height="80" as="geometry" />
        </mxCell>
        <mxCell id="zwco47nMpaqvvsI_LRL5-21" value="Bluetooth Interface Module" style="whiteSpace=wrap;html=1;aspect=fixed;fillColor=#d5e8d4;strokeColor=#82b366;" vertex="1" parent="1">
          <mxGeometry x="40" y="940" width="80" height="80" as="geometry" />
        </mxCell>
        <mxCell id="zwco47nMpaqvvsI_LRL5-22" value="Audio CODEC IC&lt;br&gt;Module" style="whiteSpace=wrap;html=1;aspect=fixed;fillColor=#d5e8d4;strokeColor=#82b366;" vertex="1" parent="1">
          <mxGeometry x="790" y="1070" width="80" height="80" as="geometry" />
        </mxCell>
        <mxCell id="zwco47nMpaqvvsI_LRL5-23" value="MEMS Microphone&lt;br&gt;Module" style="whiteSpace=wrap;html=1;aspect=fixed;fillColor=#d5e8d4;strokeColor=#82b366;" vertex="1" parent="1">
          <mxGeometry x="310" y="720" width="80" height="80" as="geometry" />
        </mxCell>
        <mxCell id="zwco47nMpaqvvsI_LRL5-24" value="Loud Speaker&lt;br&gt;Connector Module" style="whiteSpace=wrap;html=1;aspect=fixed;fillColor=#d5e8d4;strokeColor=#82b366;" vertex="1" parent="1">
          <mxGeometry x="790" y="1490" width="80" height="80" as="geometry" />
        </mxCell>
        <mxCell id="zwco47nMpaqvvsI_LRL5-25" value="3.5mm Audio Jack&lt;br&gt;Module" style="whiteSpace=wrap;html=1;aspect=fixed;fillColor=#d5e8d4;strokeColor=#82b366;" vertex="1" parent="1">
          <mxGeometry x="40" y="840" width="80" height="80" as="geometry" />
        </mxCell>
        <mxCell id="zwco47nMpaqvvsI_LRL5-27" value="RFD900 Alt Comms PoC Module" style="whiteSpace=wrap;html=1;aspect=fixed;fillColor=#d5e8d4;strokeColor=#82b366;" vertex="1" parent="1">
          <mxGeometry x="40" y="1470" width="80" height="80" as="geometry" />
        </mxCell>
        <mxCell id="zwco47nMpaqvvsI_LRL5-30" value="Thumb-Wheel Potentiometer Module" style="whiteSpace=wrap;html=1;aspect=fixed;fillColor=#d5e8d4;strokeColor=#82b366;" vertex="1" parent="1">
          <mxGeometry x="790" y="1590" width="80" height="80" as="geometry" />
        </mxCell>
        <mxCell id="zwco47nMpaqvvsI_LRL5-31" value="D-Pad Input Module" style="whiteSpace=wrap;html=1;aspect=fixed;fillColor=#d5e8d4;strokeColor=#82b366;" vertex="1" parent="1">
          <mxGeometry x="790" y="1710" width="80" height="80" as="geometry" />
        </mxCell>
        <mxCell id="zwco47nMpaqvvsI_LRL5-32" value="Push-Button Pair Input Module" style="whiteSpace=wrap;html=1;aspect=fixed;fillColor=#d5e8d4;strokeColor=#82b366;" vertex="1" parent="1">
          <mxGeometry x="790" y="1380" width="80" height="80" as="geometry" />
        </mxCell>
        <mxCell id="zwco47nMpaqvvsI_LRL5-33" value="Input Button I2C Multiplexor&lt;br&gt;Module" style="whiteSpace=wrap;html=1;aspect=fixed;fillColor=#d5e8d4;strokeColor=#82b366;" vertex="1" parent="1">
          <mxGeometry x="550" y="2030" width="80" height="80" as="geometry" />
        </mxCell>
        <mxCell id="zwco47nMpaqvvsI_LRL5-34" value="Slider Switch(es) Input Module" style="whiteSpace=wrap;html=1;aspect=fixed;fillColor=#d5e8d4;strokeColor=#82b366;" vertex="1" parent="1">
          <mxGeometry x="790" y="1270" width="80" height="80" as="geometry" />
        </mxCell>
        <mxCell id="zwco47nMpaqvvsI_LRL5-37" value="Main FPGA Module" style="swimlane;startSize=0;" vertex="1" parent="1">
          <mxGeometry x="-30" y="1795" width="140" height="130" as="geometry">
            <mxRectangle x="280" y="680" width="50" height="40" as="alternateBounds" />
          </mxGeometry>
        </mxCell>
        <mxCell id="zwco47nMpaqvvsI_LRL5-38" value="TE0790&lt;br&gt;FPGA" style="whiteSpace=wrap;html=1;aspect=fixed;" vertex="1" parent="zwco47nMpaqvvsI_LRL5-37">
          <mxGeometry x="25" y="20" width="80" height="80" as="geometry" />
        </mxCell>
        <mxCell id="zwco47nMpaqvvsI_LRL5-43" value="Main Carrier Board" style="swimlane;startSize=0;fillColor=default;strokeColor=#6c8ebf;fillStyle=auto;" vertex="1" parent="1">
          <mxGeometry x="140" y="820" width="630" height="1200" as="geometry">
            <mxRectangle x="150" y="760" width="50" height="40" as="alternateBounds" />
          </mxGeometry>
        </mxCell>
        <mxCell id="zwco47nMpaqvvsI_LRL5-41" value="Pi CM4 Module Bay" style="whiteSpace=wrap;html=1;aspect=fixed;fillColor=#dae8fc;strokeColor=#6c8ebf;" vertex="1" parent="zwco47nMpaqvvsI_LRL5-43">
          <mxGeometry x="30" y="440" width="80" height="80" as="geometry" />
        </mxCell>
        <mxCell id="zwco47nMpaqvvsI_LRL5-39" value="Low-Power FPGA Module Bay (fit FireAnt)" style="whiteSpace=wrap;html=1;aspect=fixed;fillColor=#dae8fc;strokeColor=#6c8ebf;" vertex="1" parent="zwco47nMpaqvvsI_LRL5-43">
          <mxGeometry x="30" y="550" width="80" height="80" as="geometry" />
        </mxCell>
        <mxCell id="zwco47nMpaqvvsI_LRL5-3" value="USB-C&lt;br&gt;Charge (IN) Port Bay" style="whiteSpace=wrap;html=1;aspect=fixed;fillColor=#dae8fc;strokeColor=#6c8ebf;" vertex="1" parent="zwco47nMpaqvvsI_LRL5-43">
          <mxGeometry x="30" y="750" width="80" height="80" as="geometry" />
        </mxCell>
        <mxCell id="zwco47nMpaqvvsI_LRL5-47" value="Bluetooth Module Bay" style="whiteSpace=wrap;html=1;aspect=fixed;fillColor=#dae8fc;strokeColor=#6c8ebf;" vertex="1" parent="zwco47nMpaqvvsI_LRL5-43">
          <mxGeometry x="20" y="120" width="80" height="80" as="geometry" />
        </mxCell>
        <mxCell id="zwco47nMpaqvvsI_LRL5-26" value="Alt Comms Module Bay" style="whiteSpace=wrap;html=1;aspect=fixed;fillColor=#dae8fc;strokeColor=#6c8ebf;" vertex="1" parent="zwco47nMpaqvvsI_LRL5-43">
          <mxGeometry x="30" y="650" width="80" height="80" as="geometry" />
        </mxCell>
        <mxCell id="zwco47nMpaqvvsI_LRL5-35" value="e-Ink Aux Display Panel Module Bay" style="whiteSpace=wrap;html=1;aspect=fixed;fillColor=#dae8fc;strokeColor=#6c8ebf;" vertex="1" parent="zwco47nMpaqvvsI_LRL5-43">
          <mxGeometry x="20" y="330" width="80" height="80" as="geometry" />
        </mxCell>
        <mxCell id="zwco47nMpaqvvsI_LRL5-48" value="I2C Sensor / Peripheral Module Bay x2" style="whiteSpace=wrap;html=1;aspect=fixed;fillColor=#dae8fc;strokeColor=#6c8ebf;" vertex="1" parent="zwco47nMpaqvvsI_LRL5-43">
          <mxGeometry x="530" y="350" width="80" height="80" as="geometry" />
        </mxCell>
        <mxCell id="jOns9MPHNbLSg9tlOVhy-39" style="edgeStyle=orthogonalEdgeStyle;rounded=0;orthogonalLoop=1;jettySize=auto;html=1;entryX=0.5;entryY=1;entryDx=0;entryDy=0;" edge="1" parent="zwco47nMpaqvvsI_LRL5-43" source="zwco47nMpaqvvsI_LRL5-17" target="zwco47nMpaqvvsI_LRL5-79">
          <mxGeometry relative="1" as="geometry" />
        </mxCell>
        <mxCell id="zwco47nMpaqvvsI_LRL5-17" value="&lt;div&gt;Cellular Modem&lt;/div&gt;&lt;div&gt;Bay&lt;br&gt;&lt;/div&gt;" style="whiteSpace=wrap;html=1;aspect=fixed;fillColor=#dae8fc;strokeColor=#6c8ebf;" vertex="1" parent="zwco47nMpaqvvsI_LRL5-43">
          <mxGeometry x="420" y="140" width="80" height="80" as="geometry" />
        </mxCell>
        <mxCell id="zwco47nMpaqvvsI_LRL5-49" value="Push-Button Module Bay&lt;br&gt;x2" style="whiteSpace=wrap;html=1;aspect=fixed;fillColor=#dae8fc;strokeColor=#6c8ebf;" vertex="1" parent="zwco47nMpaqvvsI_LRL5-43">
          <mxGeometry x="530" y="560" width="80" height="80" as="geometry" />
        </mxCell>
        <mxCell id="zwco47nMpaqvvsI_LRL5-50" value="Input Button Multiplexor Bay" style="whiteSpace=wrap;html=1;aspect=fixed;fillColor=#dae8fc;strokeColor=#6c8ebf;" vertex="1" parent="zwco47nMpaqvvsI_LRL5-43">
          <mxGeometry x="410" y="1100" width="80" height="80" as="geometry" />
        </mxCell>
        <mxCell id="zwco47nMpaqvvsI_LRL5-51" value="Slider Switch Bay&lt;br&gt;x3" style="whiteSpace=wrap;html=1;aspect=fixed;fillColor=#dae8fc;strokeColor=#6c8ebf;" vertex="1" parent="zwco47nMpaqvvsI_LRL5-43">
          <mxGeometry x="530" y="450" width="80" height="80" as="geometry" />
        </mxCell>
        <mxCell id="zwco47nMpaqvvsI_LRL5-57" value="Power &amp;amp; Indicator LEDs" style="whiteSpace=wrap;html=1;aspect=fixed;fillColor=#fff2cc;strokeColor=#d6b656;" vertex="1" parent="zwco47nMpaqvvsI_LRL5-43">
          <mxGeometry x="300" y="470" width="80" height="80" as="geometry" />
        </mxCell>
        <mxCell id="zwco47nMpaqvvsI_LRL5-59" value="Thumbwheel Potentiometer Bay x3" style="whiteSpace=wrap;html=1;aspect=fixed;fillColor=#dae8fc;strokeColor=#6c8ebf;" vertex="1" parent="zwco47nMpaqvvsI_LRL5-43">
          <mxGeometry x="530" y="770" width="80" height="80" as="geometry" />
        </mxCell>
        <mxCell id="jOns9MPHNbLSg9tlOVhy-40" style="edgeStyle=orthogonalEdgeStyle;rounded=0;orthogonalLoop=1;jettySize=auto;html=1;entryX=0.5;entryY=1;entryDx=0;entryDy=0;" edge="1" parent="zwco47nMpaqvvsI_LRL5-43" source="zwco47nMpaqvvsI_LRL5-60" target="zwco47nMpaqvvsI_LRL5-17">
          <mxGeometry relative="1" as="geometry" />
        </mxCell>
        <mxCell id="zwco47nMpaqvvsI_LRL5-60" value="High-Power DC:DC Regulator Bay" style="whiteSpace=wrap;html=1;aspect=fixed;fillColor=#ffe6cc;strokeColor=#d79b00;" vertex="1" parent="zwco47nMpaqvvsI_LRL5-43">
          <mxGeometry x="420" y="250" width="80" height="80" as="geometry" />
        </mxCell>
        <mxCell id="jOns9MPHNbLSg9tlOVhy-38" style="edgeStyle=orthogonalEdgeStyle;rounded=0;orthogonalLoop=1;jettySize=auto;html=1;" edge="1" parent="zwco47nMpaqvvsI_LRL5-43" source="zwco47nMpaqvvsI_LRL5-61" target="jOns9MPHNbLSg9tlOVhy-4">
          <mxGeometry relative="1" as="geometry" />
        </mxCell>
        <mxCell id="zwco47nMpaqvvsI_LRL5-61" value="High-Power DC:DC Regulator Bay" style="whiteSpace=wrap;html=1;aspect=fixed;fillColor=#ffe6cc;strokeColor=#d79b00;" vertex="1" parent="zwco47nMpaqvvsI_LRL5-43">
          <mxGeometry x="300" y="140" width="80" height="80" as="geometry" />
        </mxCell>
        <mxCell id="jOns9MPHNbLSg9tlOVhy-37" style="edgeStyle=orthogonalEdgeStyle;rounded=0;orthogonalLoop=1;jettySize=auto;html=1;entryX=1;entryY=0.5;entryDx=0;entryDy=0;" edge="1" parent="zwco47nMpaqvvsI_LRL5-43" source="zwco47nMpaqvvsI_LRL5-62" target="jOns9MPHNbLSg9tlOVhy-1">
          <mxGeometry relative="1" as="geometry" />
        </mxCell>
        <mxCell id="zwco47nMpaqvvsI_LRL5-62" value="High-Power DC:DC Regulator Bay" style="whiteSpace=wrap;html=1;aspect=fixed;fillColor=#ffe6cc;strokeColor=#d79b00;" vertex="1" parent="zwco47nMpaqvvsI_LRL5-43">
          <mxGeometry x="140" y="980" width="80" height="80" as="geometry" />
        </mxCell>
        <mxCell id="zwco47nMpaqvvsI_LRL5-63" value="High-Power DC:DC Regulator Bay" style="whiteSpace=wrap;html=1;aspect=fixed;fillColor=#dae8fc;strokeColor=#6c8ebf;" vertex="1" parent="zwco47nMpaqvvsI_LRL5-43">
          <mxGeometry x="20" y="220" width="80" height="80" as="geometry" />
        </mxCell>
        <mxCell id="jOns9MPHNbLSg9tlOVhy-43" style="edgeStyle=orthogonalEdgeStyle;rounded=0;orthogonalLoop=1;jettySize=auto;html=1;entryX=1;entryY=0.5;entryDx=0;entryDy=0;" edge="1" parent="zwco47nMpaqvvsI_LRL5-43" source="zwco47nMpaqvvsI_LRL5-64" target="zwco47nMpaqvvsI_LRL5-41">
          <mxGeometry relative="1" as="geometry" />
        </mxCell>
        <mxCell id="zwco47nMpaqvvsI_LRL5-64" value="High-Power DC:DC Regulator Bay" style="whiteSpace=wrap;html=1;aspect=fixed;fillColor=#ffe6cc;strokeColor=#d79b00;" vertex="1" parent="zwco47nMpaqvvsI_LRL5-43">
          <mxGeometry x="140" y="440" width="80" height="80" as="geometry" />
        </mxCell>
        <mxCell id="jOns9MPHNbLSg9tlOVhy-44" style="edgeStyle=orthogonalEdgeStyle;rounded=0;orthogonalLoop=1;jettySize=auto;html=1;entryX=1;entryY=0.5;entryDx=0;entryDy=0;" edge="1" parent="zwco47nMpaqvvsI_LRL5-43" source="zwco47nMpaqvvsI_LRL5-65" target="zwco47nMpaqvvsI_LRL5-26">
          <mxGeometry relative="1" as="geometry" />
        </mxCell>
        <mxCell id="zwco47nMpaqvvsI_LRL5-65" value="High-Power DC:DC Regulator Bay" style="whiteSpace=wrap;html=1;aspect=fixed;fillColor=#ffe6cc;strokeColor=#d79b00;" vertex="1" parent="zwco47nMpaqvvsI_LRL5-43">
          <mxGeometry x="140" y="650" width="80" height="80" as="geometry" />
        </mxCell>
        <mxCell id="zwco47nMpaqvvsI_LRL5-66" value="USB-C Data + Charge (OUT) Port Bay" style="whiteSpace=wrap;html=1;aspect=fixed;fillColor=#dae8fc;strokeColor=#6c8ebf;" vertex="1" parent="zwco47nMpaqvvsI_LRL5-43">
          <mxGeometry x="30" y="860" width="80" height="80" as="geometry" />
        </mxCell>
        <mxCell id="zwco47nMpaqvvsI_LRL5-67" value="Battery Connector Bay" style="whiteSpace=wrap;html=1;aspect=fixed;fillColor=#dae8fc;strokeColor=#6c8ebf;" vertex="1" parent="zwco47nMpaqvvsI_LRL5-43">
          <mxGeometry x="280" y="1100" width="80" height="80" as="geometry" />
        </mxCell>
        <mxCell id="zwco47nMpaqvvsI_LRL5-69" value="Internal Solar Connector Bay" style="whiteSpace=wrap;html=1;aspect=fixed;fillColor=#dae8fc;strokeColor=#6c8ebf;" vertex="1" parent="zwco47nMpaqvvsI_LRL5-43">
          <mxGeometry x="520" y="1000" width="80" height="80" as="geometry" />
        </mxCell>
        <mxCell id="zwco47nMpaqvvsI_LRL5-70" value="Solar/Dirty DC Charge Controller Bay" style="whiteSpace=wrap;html=1;aspect=fixed;fillColor=#dae8fc;strokeColor=#6c8ebf;" vertex="1" parent="zwco47nMpaqvvsI_LRL5-43">
          <mxGeometry x="150" y="1100" width="80" height="80" as="geometry" />
        </mxCell>
        <mxCell id="zwco47nMpaqvvsI_LRL5-71" value="Dual Uni-Directional&lt;br&gt;Galvanic DC Isolater Bay" style="whiteSpace=wrap;html=1;aspect=fixed;fillColor=#dae8fc;strokeColor=#6c8ebf;" vertex="1" parent="zwco47nMpaqvvsI_LRL5-43">
          <mxGeometry x="520" y="1100" width="80" height="80" as="geometry" />
        </mxCell>
        <mxCell id="zwco47nMpaqvvsI_LRL5-73" value="Internal Solar Charge Controller Bay" style="whiteSpace=wrap;html=1;aspect=fixed;fillColor=#dae8fc;strokeColor=#6c8ebf;" vertex="1" parent="zwco47nMpaqvvsI_LRL5-43">
          <mxGeometry x="40" y="1100" width="80" height="80" as="geometry" />
        </mxCell>
        <mxCell id="zwco47nMpaqvvsI_LRL5-76" value="Audio Codec Module Bay" style="whiteSpace=wrap;html=1;aspect=fixed;fillColor=#dae8fc;strokeColor=#6c8ebf;" vertex="1" parent="zwco47nMpaqvvsI_LRL5-43">
          <mxGeometry x="530" y="250" width="80" height="80" as="geometry" />
        </mxCell>
        <mxCell id="zwco47nMpaqvvsI_LRL5-77" value="3.5mm Audio Jack Module Bay" style="whiteSpace=wrap;html=1;aspect=fixed;fillColor=#dae8fc;strokeColor=#6c8ebf;" vertex="1" parent="zwco47nMpaqvvsI_LRL5-43">
          <mxGeometry x="20" y="20" width="80" height="80" as="geometry" />
        </mxCell>
        <mxCell id="zwco47nMpaqvvsI_LRL5-78" value="MEMS Microphone Module Bay&lt;br&gt;x4" style="whiteSpace=wrap;html=1;aspect=fixed;fillColor=#dae8fc;strokeColor=#6c8ebf;" vertex="1" parent="zwco47nMpaqvvsI_LRL5-43">
          <mxGeometry x="170" y="20" width="80" height="80" as="geometry" />
        </mxCell>
        <mxCell id="zwco47nMpaqvvsI_LRL5-79" value="SIM+SD Card Slot Bay" style="whiteSpace=wrap;html=1;aspect=fixed;fillColor=#dae8fc;strokeColor=#6c8ebf;" vertex="1" parent="zwco47nMpaqvvsI_LRL5-43">
          <mxGeometry x="420" y="20" width="80" height="80" as="geometry" />
        </mxCell>
        <mxCell id="jOns9MPHNbLSg9tlOVhy-1" value="Main FPGA&lt;br&gt;Module Bay" style="whiteSpace=wrap;html=1;aspect=fixed;fillColor=#dae8fc;strokeColor=#6c8ebf;" vertex="1" parent="zwco47nMpaqvvsI_LRL5-43">
          <mxGeometry x="30" y="980" width="80" height="80" as="geometry" />
        </mxCell>
        <mxCell id="jOns9MPHNbLSg9tlOVhy-2" value="D-Pad Input Module Bay" style="whiteSpace=wrap;html=1;aspect=fixed;fillColor=#dae8fc;strokeColor=#6c8ebf;" vertex="1" parent="zwco47nMpaqvvsI_LRL5-43">
          <mxGeometry x="520" y="890" width="80" height="80" as="geometry" />
        </mxCell>
        <mxCell id="jOns9MPHNbLSg9tlOVhy-3" value="Low-Power&lt;br&gt;DC:DC&lt;br&gt;Regulator&lt;br&gt;Module Bay" style="whiteSpace=wrap;html=1;aspect=fixed;fillColor=#dae8fc;strokeColor=#6c8ebf;" vertex="1" parent="zwco47nMpaqvvsI_LRL5-43">
          <mxGeometry x="530" y="20" width="80" height="80" as="geometry" />
        </mxCell>
        <mxCell id="jOns9MPHNbLSg9tlOVhy-4" value="LCD Panel Interface Module Bay" style="whiteSpace=wrap;html=1;aspect=fixed;fillColor=#dae8fc;strokeColor=#6c8ebf;" vertex="1" parent="zwco47nMpaqvvsI_LRL5-43">
          <mxGeometry x="300" y="20" width="80" height="80" as="geometry" />
        </mxCell>
        <mxCell id="jOns9MPHNbLSg9tlOVhy-35" value="Loud Speaker Connector" style="whiteSpace=wrap;html=1;aspect=fixed;fillColor=#fff2cc;strokeColor=#d6b656;" vertex="1" parent="zwco47nMpaqvvsI_LRL5-43">
          <mxGeometry x="530" y="670" width="80" height="80" as="geometry" />
        </mxCell>
        <mxCell id="jOns9MPHNbLSg9tlOVhy-46" style="edgeStyle=orthogonalEdgeStyle;rounded=0;orthogonalLoop=1;jettySize=auto;html=1;entryX=0.5;entryY=1;entryDx=0;entryDy=0;" edge="1" parent="zwco47nMpaqvvsI_LRL5-43" source="jOns9MPHNbLSg9tlOVhy-45" target="zwco47nMpaqvvsI_LRL5-78">
          <mxGeometry relative="1" as="geometry" />
        </mxCell>
        <mxCell id="jOns9MPHNbLSg9tlOVhy-45" value="Low-Power&lt;br&gt;DC:DC&lt;br&gt;Regulator&lt;br&gt;Module Bay" style="whiteSpace=wrap;html=1;aspect=fixed;fillColor=#ffe6cc;strokeColor=#d79b00;" vertex="1" parent="zwco47nMpaqvvsI_LRL5-43">
          <mxGeometry x="170" y="140" width="80" height="80" as="geometry" />
        </mxCell>
        <mxCell id="zwco47nMpaqvvsI_LRL5-58" value="LCD Panel Interface Module" style="swimlane;startSize=0;" vertex="1" parent="1">
          <mxGeometry x="420" y="570" width="320" height="130" as="geometry" />
        </mxCell>
        <mxCell id="zwco47nMpaqvvsI_LRL5-19" value="DVGA LCD Panel" style="whiteSpace=wrap;html=1;aspect=fixed;" vertex="1" parent="zwco47nMpaqvvsI_LRL5-58">
          <mxGeometry x="20" y="30" width="80" height="80" as="geometry" />
        </mxCell>
        <mxCell id="zwco47nMpaqvvsI_LRL5-28" value="LCD Panel Touch Interface" style="whiteSpace=wrap;html=1;aspect=fixed;" vertex="1" parent="zwco47nMpaqvvsI_LRL5-58">
          <mxGeometry x="120" y="30" width="80" height="80" as="geometry" />
        </mxCell>
        <mxCell id="zwco47nMpaqvvsI_LRL5-18" value="LCD Backlight DC:DC Regulator" style="whiteSpace=wrap;html=1;aspect=fixed;" vertex="1" parent="zwco47nMpaqvvsI_LRL5-58">
          <mxGeometry x="220" y="30" width="80" height="80" as="geometry" />
        </mxCell>
        <mxCell id="zwco47nMpaqvvsI_LRL5-7" value="Internal&lt;br&gt;Solar Panel&lt;br&gt;Charge Controller&lt;br&gt;Module" style="whiteSpace=wrap;html=1;aspect=fixed;fillColor=#d5e8d4;strokeColor=#82b366;" vertex="1" parent="1">
          <mxGeometry x="180" y="2030" width="80" height="80" as="geometry" />
        </mxCell>
        <mxCell id="zwco47nMpaqvvsI_LRL5-74" value="Internal Solar Panel Connector Module" style="whiteSpace=wrap;html=1;aspect=fixed;fillColor=#d5e8d4;strokeColor=#82b366;" vertex="1" parent="1">
          <mxGeometry x="800" y="1820" width="80" height="80" as="geometry" />
        </mxCell>
        <mxCell id="zwco47nMpaqvvsI_LRL5-75" value="2x DC Galvanic Isolator/Switch Module" style="whiteSpace=wrap;html=1;aspect=fixed;fillColor=#d5e8d4;strokeColor=#82b366;" vertex="1" parent="1">
          <mxGeometry x="800" y="1920" width="80" height="80" as="geometry" />
        </mxCell>
        <mxCell id="zwco47nMpaqvvsI_LRL5-80" value="SIM Card + SD Card Slot Module" style="whiteSpace=wrap;html=1;aspect=fixed;fillColor=#d5e8d4;strokeColor=#82b366;" vertex="1" parent="1">
          <mxGeometry x="560" y="730" width="80" height="80" as="geometry" />
        </mxCell>
        <mxCell id="zwco47nMpaqvvsI_LRL5-20" value="Low-Power DC:DC Regulator&lt;br&gt;Module" style="whiteSpace=wrap;html=1;aspect=fixed;fillColor=#d5e8d4;strokeColor=#82b366;" vertex="1" parent="1">
          <mxGeometry x="790" y="840" width="80" height="80" as="geometry" />
        </mxCell>
        <mxCell id="jOns9MPHNbLSg9tlOVhy-5" style="edgeStyle=orthogonalEdgeStyle;rounded=0;orthogonalLoop=1;jettySize=auto;html=1;entryX=1.021;entryY=0.354;entryDx=0;entryDy=0;entryPerimeter=0;" edge="1" parent="1" source="jOns9MPHNbLSg9tlOVhy-1" target="zwco47nMpaqvvsI_LRL5-37">
          <mxGeometry relative="1" as="geometry">
            <mxPoint x="120" y="1840" as="targetPoint" />
          </mxGeometry>
        </mxCell>
        <mxCell id="jOns9MPHNbLSg9tlOVhy-6" style="edgeStyle=orthogonalEdgeStyle;rounded=0;orthogonalLoop=1;jettySize=auto;html=1;entryX=1;entryY=0.5;entryDx=0;entryDy=0;" edge="1" parent="1" source="zwco47nMpaqvvsI_LRL5-66" target="zwco47nMpaqvvsI_LRL5-4">
          <mxGeometry relative="1" as="geometry" />
        </mxCell>
        <mxCell id="jOns9MPHNbLSg9tlOVhy-7" style="edgeStyle=orthogonalEdgeStyle;rounded=0;orthogonalLoop=1;jettySize=auto;html=1;" edge="1" parent="1" source="zwco47nMpaqvvsI_LRL5-26" target="zwco47nMpaqvvsI_LRL5-27">
          <mxGeometry relative="1" as="geometry" />
        </mxCell>
        <mxCell id="jOns9MPHNbLSg9tlOVhy-9" value="USB-C Charge (In) Port Module" style="whiteSpace=wrap;html=1;aspect=fixed;fillColor=#d5e8d4;strokeColor=#82b366;" vertex="1" parent="1">
          <mxGeometry x="40" y="1570" width="80" height="80" as="geometry" />
        </mxCell>
        <mxCell id="jOns9MPHNbLSg9tlOVhy-10" style="edgeStyle=orthogonalEdgeStyle;rounded=0;orthogonalLoop=1;jettySize=auto;html=1;" edge="1" parent="1" source="zwco47nMpaqvvsI_LRL5-3" target="jOns9MPHNbLSg9tlOVhy-9">
          <mxGeometry relative="1" as="geometry" />
        </mxCell>
        <mxCell id="jOns9MPHNbLSg9tlOVhy-12" style="edgeStyle=orthogonalEdgeStyle;rounded=0;orthogonalLoop=1;jettySize=auto;html=1;entryX=1;entryY=0.5;entryDx=0;entryDy=0;" edge="1" parent="1" source="zwco47nMpaqvvsI_LRL5-63" target="zwco47nMpaqvvsI_LRL5-14">
          <mxGeometry relative="1" as="geometry" />
        </mxCell>
        <mxCell id="jOns9MPHNbLSg9tlOVhy-13" style="edgeStyle=orthogonalEdgeStyle;rounded=0;orthogonalLoop=1;jettySize=auto;html=1;entryX=0.988;entryY=0.388;entryDx=0;entryDy=0;entryPerimeter=0;" edge="1" parent="1" source="zwco47nMpaqvvsI_LRL5-47" target="zwco47nMpaqvvsI_LRL5-21">
          <mxGeometry relative="1" as="geometry" />
        </mxCell>
        <mxCell id="jOns9MPHNbLSg9tlOVhy-14" style="edgeStyle=orthogonalEdgeStyle;rounded=0;orthogonalLoop=1;jettySize=auto;html=1;entryX=1;entryY=0.5;entryDx=0;entryDy=0;" edge="1" parent="1" source="zwco47nMpaqvvsI_LRL5-77" target="zwco47nMpaqvvsI_LRL5-25">
          <mxGeometry relative="1" as="geometry" />
        </mxCell>
        <mxCell id="jOns9MPHNbLSg9tlOVhy-15" style="edgeStyle=orthogonalEdgeStyle;rounded=0;orthogonalLoop=1;jettySize=auto;html=1;" edge="1" parent="1" source="zwco47nMpaqvvsI_LRL5-78" target="zwco47nMpaqvvsI_LRL5-23">
          <mxGeometry relative="1" as="geometry" />
        </mxCell>
        <mxCell id="jOns9MPHNbLSg9tlOVhy-16" style="edgeStyle=orthogonalEdgeStyle;rounded=0;orthogonalLoop=1;jettySize=auto;html=1;" edge="1" parent="1" source="jOns9MPHNbLSg9tlOVhy-4" target="zwco47nMpaqvvsI_LRL5-58">
          <mxGeometry relative="1" as="geometry">
            <Array as="points">
              <mxPoint x="480" y="740" />
              <mxPoint x="480" y="740" />
            </Array>
          </mxGeometry>
        </mxCell>
        <mxCell id="jOns9MPHNbLSg9tlOVhy-17" style="edgeStyle=orthogonalEdgeStyle;rounded=0;orthogonalLoop=1;jettySize=auto;html=1;entryX=0.5;entryY=1;entryDx=0;entryDy=0;" edge="1" parent="1" source="zwco47nMpaqvvsI_LRL5-79" target="zwco47nMpaqvvsI_LRL5-80">
          <mxGeometry relative="1" as="geometry" />
        </mxCell>
        <mxCell id="jOns9MPHNbLSg9tlOVhy-19" style="edgeStyle=orthogonalEdgeStyle;rounded=0;orthogonalLoop=1;jettySize=auto;html=1;entryX=0;entryY=0.5;entryDx=0;entryDy=0;" edge="1" parent="1" source="jOns9MPHNbLSg9tlOVhy-3" target="zwco47nMpaqvvsI_LRL5-20">
          <mxGeometry relative="1" as="geometry" />
        </mxCell>
        <mxCell id="jOns9MPHNbLSg9tlOVhy-20" style="edgeStyle=orthogonalEdgeStyle;rounded=0;orthogonalLoop=1;jettySize=auto;html=1;entryX=0;entryY=0.5;entryDx=0;entryDy=0;" edge="1" parent="1" source="zwco47nMpaqvvsI_LRL5-76" target="zwco47nMpaqvvsI_LRL5-22">
          <mxGeometry relative="1" as="geometry" />
        </mxCell>
        <mxCell id="jOns9MPHNbLSg9tlOVhy-21" style="edgeStyle=orthogonalEdgeStyle;rounded=0;orthogonalLoop=1;jettySize=auto;html=1;" edge="1" parent="1" source="zwco47nMpaqvvsI_LRL5-51" target="zwco47nMpaqvvsI_LRL5-34">
          <mxGeometry relative="1" as="geometry" />
        </mxCell>
        <mxCell id="jOns9MPHNbLSg9tlOVhy-22" style="edgeStyle=orthogonalEdgeStyle;rounded=0;orthogonalLoop=1;jettySize=auto;html=1;entryX=0;entryY=0.5;entryDx=0;entryDy=0;" edge="1" parent="1" source="zwco47nMpaqvvsI_LRL5-49" target="zwco47nMpaqvvsI_LRL5-32">
          <mxGeometry relative="1" as="geometry" />
        </mxCell>
        <mxCell id="jOns9MPHNbLSg9tlOVhy-23" style="edgeStyle=orthogonalEdgeStyle;rounded=0;orthogonalLoop=1;jettySize=auto;html=1;entryX=0;entryY=0.5;entryDx=0;entryDy=0;" edge="1" parent="1" source="zwco47nMpaqvvsI_LRL5-59" target="zwco47nMpaqvvsI_LRL5-30">
          <mxGeometry relative="1" as="geometry" />
        </mxCell>
        <mxCell id="jOns9MPHNbLSg9tlOVhy-24" style="edgeStyle=orthogonalEdgeStyle;rounded=0;orthogonalLoop=1;jettySize=auto;html=1;entryX=0;entryY=0.5;entryDx=0;entryDy=0;" edge="1" parent="1" source="jOns9MPHNbLSg9tlOVhy-2" target="zwco47nMpaqvvsI_LRL5-31">
          <mxGeometry relative="1" as="geometry" />
        </mxCell>
        <mxCell id="jOns9MPHNbLSg9tlOVhy-25" style="edgeStyle=orthogonalEdgeStyle;rounded=0;orthogonalLoop=1;jettySize=auto;html=1;" edge="1" parent="1" source="zwco47nMpaqvvsI_LRL5-69" target="zwco47nMpaqvvsI_LRL5-74">
          <mxGeometry relative="1" as="geometry" />
        </mxCell>
        <mxCell id="jOns9MPHNbLSg9tlOVhy-26" style="edgeStyle=orthogonalEdgeStyle;rounded=0;orthogonalLoop=1;jettySize=auto;html=1;entryX=0;entryY=0.5;entryDx=0;entryDy=0;" edge="1" parent="1" source="zwco47nMpaqvvsI_LRL5-71" target="zwco47nMpaqvvsI_LRL5-75">
          <mxGeometry relative="1" as="geometry" />
        </mxCell>
        <mxCell id="jOns9MPHNbLSg9tlOVhy-27" style="edgeStyle=orthogonalEdgeStyle;rounded=0;orthogonalLoop=1;jettySize=auto;html=1;entryX=0.5;entryY=0;entryDx=0;entryDy=0;" edge="1" parent="1" source="zwco47nMpaqvvsI_LRL5-50" target="zwco47nMpaqvvsI_LRL5-33">
          <mxGeometry relative="1" as="geometry" />
        </mxCell>
        <mxCell id="jOns9MPHNbLSg9tlOVhy-28" style="edgeStyle=orthogonalEdgeStyle;rounded=0;orthogonalLoop=1;jettySize=auto;html=1;" edge="1" parent="1" source="zwco47nMpaqvvsI_LRL5-67" target="zwco47nMpaqvvsI_LRL5-1">
          <mxGeometry relative="1" as="geometry" />
        </mxCell>
        <mxCell id="jOns9MPHNbLSg9tlOVhy-29" style="edgeStyle=orthogonalEdgeStyle;rounded=0;orthogonalLoop=1;jettySize=auto;html=1;entryX=0.5;entryY=0;entryDx=0;entryDy=0;" edge="1" parent="1" source="zwco47nMpaqvvsI_LRL5-70" target="zwco47nMpaqvvsI_LRL5-6">
          <mxGeometry relative="1" as="geometry" />
        </mxCell>
        <mxCell id="jOns9MPHNbLSg9tlOVhy-30" style="edgeStyle=orthogonalEdgeStyle;rounded=0;orthogonalLoop=1;jettySize=auto;html=1;" edge="1" parent="1" source="zwco47nMpaqvvsI_LRL5-73" target="zwco47nMpaqvvsI_LRL5-7">
          <mxGeometry relative="1" as="geometry" />
        </mxCell>
        <mxCell id="jOns9MPHNbLSg9tlOVhy-31" value="Pi CM4 Module" style="whiteSpace=wrap;html=1;aspect=fixed;fillColor=#e1d5e7;strokeColor=#9673a6;" vertex="1" parent="1">
          <mxGeometry x="40" y="1260" width="80" height="80" as="geometry" />
        </mxCell>
        <mxCell id="jOns9MPHNbLSg9tlOVhy-32" value="Future I2C Sensor/Peripheral Modules" style="whiteSpace=wrap;html=1;aspect=fixed;fillColor=#e1d5e7;strokeColor=#9673a6;" vertex="1" parent="1">
          <mxGeometry x="790" y="1170" width="80" height="80" as="geometry" />
        </mxCell>
        <mxCell id="jOns9MPHNbLSg9tlOVhy-33" style="edgeStyle=orthogonalEdgeStyle;rounded=0;orthogonalLoop=1;jettySize=auto;html=1;" edge="1" parent="1" source="zwco47nMpaqvvsI_LRL5-48" target="jOns9MPHNbLSg9tlOVhy-32">
          <mxGeometry relative="1" as="geometry" />
        </mxCell>
        <mxCell id="jOns9MPHNbLSg9tlOVhy-34" style="edgeStyle=orthogonalEdgeStyle;rounded=0;orthogonalLoop=1;jettySize=auto;html=1;entryX=1;entryY=0.5;entryDx=0;entryDy=0;" edge="1" parent="1" source="zwco47nMpaqvvsI_LRL5-41" target="jOns9MPHNbLSg9tlOVhy-31">
          <mxGeometry relative="1" as="geometry" />
        </mxCell>
        <mxCell id="jOns9MPHNbLSg9tlOVhy-36" style="edgeStyle=orthogonalEdgeStyle;rounded=0;orthogonalLoop=1;jettySize=auto;html=1;" edge="1" parent="1" source="jOns9MPHNbLSg9tlOVhy-35" target="zwco47nMpaqvvsI_LRL5-24">
          <mxGeometry relative="1" as="geometry" />
        </mxCell>
        <mxCell id="jOns9MPHNbLSg9tlOVhy-41" value="Cellular Modem Carrier Module" style="whiteSpace=wrap;html=1;aspect=fixed;fillColor=#d5e8d4;strokeColor=#82b366;" vertex="1" parent="1">
          <mxGeometry x="790" y="960" width="80" height="80" as="geometry" />
        </mxCell>
        <mxCell id="jOns9MPHNbLSg9tlOVhy-42" style="edgeStyle=orthogonalEdgeStyle;rounded=0;orthogonalLoop=1;jettySize=auto;html=1;" edge="1" parent="1" source="zwco47nMpaqvvsI_LRL5-17" target="jOns9MPHNbLSg9tlOVhy-41">
          <mxGeometry relative="1" as="geometry" />
        </mxCell>
        <mxCell id="jOns9MPHNbLSg9tlOVhy-47" value="e-Ink Display Panel Module" style="whiteSpace=wrap;html=1;aspect=fixed;fillColor=#e1d5e7;strokeColor=#9673a6;" vertex="1" parent="1">
          <mxGeometry x="40" y="1150" width="80" height="80" as="geometry" />
        </mxCell>
        <mxCell id="jOns9MPHNbLSg9tlOVhy-48" style="edgeStyle=orthogonalEdgeStyle;rounded=0;orthogonalLoop=1;jettySize=auto;html=1;" edge="1" parent="1" source="zwco47nMpaqvvsI_LRL5-35" target="jOns9MPHNbLSg9tlOVhy-47">
          <mxGeometry relative="1" as="geometry" />
        </mxCell>
        <mxCell id="jOns9MPHNbLSg9tlOVhy-49" style="edgeStyle=orthogonalEdgeStyle;rounded=0;orthogonalLoop=1;jettySize=auto;html=1;entryX=1;entryY=0.25;entryDx=0;entryDy=0;" edge="1" parent="1" source="zwco47nMpaqvvsI_LRL5-39" target="zwco47nMpaqvvsI_LRL5-9">
          <mxGeometry relative="1" as="geometry" />
        </mxCell>
        <mxCell id="jOns9MPHNbLSg9tlOVhy-50" value="" style="rounded=0;whiteSpace=wrap;html=1;" vertex="1" parent="1">
          <mxGeometry x="-60" y="550" width="340" height="210" as="geometry" />
        </mxCell>
        <mxCell id="jOns9MPHNbLSg9tlOVhy-52" value="" style="whiteSpace=wrap;html=1;aspect=fixed;fillColor=#dae8fc;strokeColor=#6c8ebf;" vertex="1" parent="1">
          <mxGeometry x="-50" y="560" width="30" height="30" as="geometry" />
        </mxCell>
        <mxCell id="jOns9MPHNbLSg9tlOVhy-53" value="" style="whiteSpace=wrap;html=1;aspect=fixed;fillColor=#d5e8d4;strokeColor=#82b366;" vertex="1" parent="1">
          <mxGeometry x="-50" y="600" width="30" height="30" as="geometry" />
        </mxCell>
        <mxCell id="jOns9MPHNbLSg9tlOVhy-54" value="" style="whiteSpace=wrap;html=1;aspect=fixed;fillColor=#fff2cc;strokeColor=#d6b656;" vertex="1" parent="1">
          <mxGeometry x="-50" y="640" width="30" height="30" as="geometry" />
        </mxCell>
        <mxCell id="jOns9MPHNbLSg9tlOVhy-55" value="" style="whiteSpace=wrap;html=1;aspect=fixed;fillColor=#e1d5e7;strokeColor=#9673a6;" vertex="1" parent="1">
          <mxGeometry x="-50" y="680" width="30" height="30" as="geometry" />
        </mxCell>
        <mxCell id="jOns9MPHNbLSg9tlOVhy-56" value="" style="whiteSpace=wrap;html=1;aspect=fixed;fillColor=#ffe6cc;strokeColor=#d79b00;" vertex="1" parent="1">
          <mxGeometry x="-50" y="720" width="30" height="30" as="geometry" />
        </mxCell>
        <mxCell id="jOns9MPHNbLSg9tlOVhy-57" value="Bay/Socket for Modules" style="text;html=1;align=left;verticalAlign=middle;whiteSpace=wrap;rounded=0;" vertex="1" parent="1">
          <mxGeometry y="560" width="280" height="30" as="geometry" />
        </mxCell>
        <mxCell id="jOns9MPHNbLSg9tlOVhy-58" value="Modules in Current Scope of Work" style="text;html=1;align=left;verticalAlign=middle;whiteSpace=wrap;rounded=0;" vertex="1" parent="1">
          <mxGeometry y="600" width="280" height="30" as="geometry" />
        </mxCell>
        <mxCell id="jOns9MPHNbLSg9tlOVhy-59" value="Components Mounted Directly on Carrier Board" style="text;html=1;align=left;verticalAlign=middle;whiteSpace=wrap;rounded=0;" vertex="1" parent="1">
          <mxGeometry y="640" width="280" height="30" as="geometry" />
        </mxCell>
        <mxCell id="jOns9MPHNbLSg9tlOVhy-60" value="Modules out of Current Scope of Work" style="text;html=1;align=left;verticalAlign=middle;whiteSpace=wrap;rounded=0;" vertex="1" parent="1">
          <mxGeometry y="680" width="280" height="30" as="geometry" />
        </mxCell>
        <mxCell id="jOns9MPHNbLSg9tlOVhy-61" value="Modules Re-used" style="text;html=1;align=left;verticalAlign=middle;whiteSpace=wrap;rounded=0;" vertex="1" parent="1">
          <mxGeometry y="720" width="280" height="30" as="geometry" />
        </mxCell>
        <mxCell id="jOns9MPHNbLSg9tlOVhy-62" value="&lt;b&gt;LEGEND&lt;/b&gt;" style="text;html=1;align=center;verticalAlign=middle;whiteSpace=wrap;rounded=0;" vertex="1" parent="1">
          <mxGeometry x="90" y="520" width="60" height="30" as="geometry" />
        </mxCell>
      </root>
    </mxGraphModel>
  </diagram>
</mxfile>
